<svg version="1.0" xmlns="http://www.w3.org/2000/svg"
     width="1920.000000pt" height="1080.000000pt" viewBox="0 0 1920.000000 1080.000000"
     preserveAspectRatio="xMidYMid meet">

    <g transform="translate(0.000000,1080.000000) scale(0.100000,-0.100000)"
       fill="#000000" stroke="none">
        <path d="M7210 7147 c0 -79 2 -86 25 -101 68 -44 108 -174 145 -471 49 -391
54 -761 15 -1034 -32 -221 -76 -371 -122 -418 -32 -31 -33 -35 -33 -112 l0
-79 698 -4 c1012 -4 1068 0 1267 97 175 85 268 183 319 336 37 113 42 198 17
302 -32 134 -93 239 -198 338 -70 67 -124 96 -207 113 l-61 13 60 17 c142 41
263 124 306 208 25 48 43 177 34 248 -24 211 -133 407 -281 505 -68 46 -186
89 -279 103 -42 7 -394 13 -887 17 l-818 7 0 -85z m1392 -159 c73 -34 131 -95
159 -166 18 -48 22 -79 23 -197 1 -118 -2 -146 -18 -178 -57 -114 -237 -189
-456 -191 -58 -1 -118 3 -133 7 l-29 8 4 252 c3 237 5 256 27 311 31 78 101
149 167 170 73 23 185 16 256 -16z m-164 -973 c159 -33 262 -97 308 -192 25
-50 29 -70 32 -178 9 -274 -54 -420 -212 -491 -145 -66 -300 -11 -370 131 -49
100 -57 167 -54 462 l3 267 25 7 c45 13 197 9 268 -6z"/>
        <path d="M9520 7146 c0 -78 2 -85 25 -100 29 -19 45 -68 85 -266 51 -252 64
-387 64 -690 0 -291 -11 -417 -59 -685 -43 -237 -46 -245 -82 -281 -32 -32
-33 -36 -33 -112 l0 -79 512 -6 c281 -4 652 -7 825 -7 l314 0 52 26 c234 118
373 314 402 568 l7 58 -39 -6 c-21 -3 -144 -8 -273 -11 -129 -3 -256 -8 -281
-11 l-46 -5 -31 -127 c-54 -216 -117 -312 -206 -312 -80 0 -169 35 -230 91
-111 101 -134 191 -138 534 l-3 240 60 9 c77 12 233 -6 312 -35 75 -28 170
-83 272 -159 l81 -60 34 52 c104 164 137 294 105 413 -26 94 -209 215 -358
235 -136 19 -308 -18 -446 -95 -35 -19 -67 -35 -71 -35 -4 0 -4 60 -1 133 12
298 93 520 210 576 58 28 159 29 203 2 69 -42 122 -145 163 -312 14 -60 30
-109 34 -109 5 0 141 38 303 85 162 47 296 85 299 85 12 0 4 91 -12 140 -50
157 -250 266 -592 324 -81 14 -196 16 -778 16 l-683 0 0 -84z"/>
        <path d="M11640 7159 c0 -59 4 -76 24 -102 85 -113 148 -320 176 -577 14 -124
13 -715 0 -867 -14 -146 -41 -289 -70 -367 -25 -65 -80 -133 -116 -142 -23 -6
-24 -10 -24 -90 l0 -84 420 0 420 0 0 58 c0 57 0 57 -45 85 -104 66 -184 187
-227 342 -20 75 -22 106 -26 478 -2 218 0 397 5 397 4 -1 24 -26 43 -57 49
-77 225 -242 345 -323 128 -86 163 -115 254 -203 127 -125 211 -249 262 -389
33 -88 33 -112 0 -212 -10 -31 -15 -75 -13 -113 l3 -63 389 0 390 0 0 73 c0
69 -2 75 -31 103 -63 60 -104 160 -136 331 -26 141 -26 836 0 1053 23 190 59
345 98 431 37 79 104 149 144 149 28 0 29 3 19 99 l-7 61 -408 0 -409 0 0 -68
c0 -68 0 -68 49 -119 82 -85 133 -216 167 -428 15 -94 34 -648 21 -635 -2 3
-40 52 -83 110 -98 131 -238 277 -324 337 -250 177 -366 326 -378 484 -5 79 7
118 49 154 30 25 37 63 23 134 l-6 31 -499 0 -499 0 0 -71z"/>
        <path d="M14870 7224 c-257 -23 -473 -98 -631 -219 -148 -115 -333 -398 -391
-600 -20 -70 -23 -101 -22 -255 1 -256 21 -370 91 -513 178 -362 447 -596 787
-682 202 -51 410 -56 632 -16 363 67 600 201 702 398 43 84 72 197 72 286 0
117 -96 202 -282 247 -100 25 -398 41 -398 22 0 -7 10 -47 22 -89 16 -55 22
-106 22 -173 1 -94 0 -96 -57 -224 -64 -144 -109 -220 -144 -243 -37 -25 -166
-14 -235 20 -208 102 -318 422 -318 921 0 165 10 249 41 371 64 254 231 430
464 490 123 31 246 11 316 -52 59 -53 65 -70 38 -99 -28 -29 -42 -30 -113 -2
l-57 21 -28 -27 c-16 -15 -41 -50 -56 -78 -25 -47 -27 -57 -23 -132 6 -94 33
-160 86 -214 135 -134 424 -118 557 31 99 109 134 339 73 465 -34 69 -150 180
-233 224 -88 46 -212 82 -347 102 -100 15 -477 28 -568 20z"/>
        <path d="M16145 7143 c5 -53 15 -98 25 -117 78 -135 120 -464 120 -951 0 -529
-31 -803 -106 -943 -29 -54 -34 -72 -34 -132 l0 -70 505 0 505 0 0 75 c0 69
-3 80 -34 128 -68 102 -120 322 -133 561 -6 115 -6 119 13 111 53 -23 267 -16
337 10 15 7 17 -1 17 -81 0 -238 -39 -477 -95 -590 -30 -62 -35 -82 -35 -143
l0 -71 505 0 505 0 0 74 c0 56 -4 79 -19 97 -59 76 -109 232 -135 426 -27 195
-39 563 -27 822 19 408 61 601 153 697 29 31 29 33 23 101 l-7 70 -316 6
c-173 4 -400 7 -504 7 l-188 0 0 -76 c0 -64 5 -86 29 -138 65 -136 99 -324
108 -609 l6 -188 -24 5 c-13 3 -48 10 -76 15 -71 14 -157 50 -227 95 l-56 36
6 83 c10 143 33 309 54 390 22 87 74 193 102 208 15 8 18 22 18 88 l0 78 -317
6 c-174 4 -404 7 -511 7 l-194 0 7 -87z"/>
        <path d="M1881 5656 c-8 -9 -11 -73 -9 -207 l3 -194 165 -5 165 -5 3 -37 3
-38 -158 0 c-110 0 -163 -4 -171 -12 -17 -17 -17 -359 0 -376 8 -8 60 -12 170
-12 l158 0 0 -90 0 -90 -87 -1 c-163 -1 -497 -10 -500 -13 -2 -1 -6 -36 -9
-77 -10 -118 -27 -112 313 -103 l283 7 0 -238 0 -238 92 7 c50 3 113 6 140 6
l48 0 0 809 c0 482 4 812 9 816 5 3 17 -2 25 -11 13 -13 16 -42 16 -160 l0
-144 1423 -2 1422 -3 3 -37 3 -38 -1425 0 -1426 0 0 -200 0 -200 1425 0 1426
0 -3 -92 -3 -93 -1422 -3 -1423 -2 0 -90 0 -90 80 0 c44 0 80 -4 80 -9 0 -6
-36 -36 -80 -67 l-80 -58 0 -79 c0 -66 2 -78 15 -73 8 3 99 67 202 143 l188
138 993 3 c740 2 998 -1 1015 -9 27 -14 383 -274 415 -302 18 -17 22 -31 22
-78 0 -32 3 -60 8 -62 4 -3 64 -8 135 -11 l127 -8 0 811 c0 504 4 812 10 816
5 3 16 -5 25 -19 13 -19 16 -51 14 -162 l-1 -139 143 -3 c79 -1 147 2 152 7
14 14 9 414 -6 423 -7 4 -933 8 -2058 8 -1727 0 -2048 -2 -2058 -14z m3507
-1333 c2 -40 -1 -73 -5 -73 -16 0 -193 137 -186 144 4 4 48 5 98 4 l90 -3 3
-72z"/>
        <path d="M5710 4970 l0 -200 138 0 c75 0 142 4 148 8 8 5 13 66 15 190 3 154
2 184 -11 192 -8 5 -77 10 -152 10 l-138 0 0 -200z"/>
        <path d="M5710 4491 l0 -88 253 -7 c244 -7 284 -5 299 18 9 13 10 128 2 150
-5 14 -40 16 -280 16 l-274 0 0 -89z"/>
    </g>
</svg>
